<?xml version="1.0" encoding="iso-8859-1"?><!-- Generator: Adobe Illustrator 19.0.0, SVG Export Plug-In . SVG Version: 6.00 Build 0)  -->
<svg style="enable-background:new 0 0 512 512;" id="Capa_1" version="1.1" viewBox="0 0 512 512" x="0px"
    xmlns="http://www.w3.org/2000/svg" y="0px" xml:space="preserve">
<g>
	<g>
		<path d="M445.355,412.864l-16.32-277.333c-1.685-28.139-25.067-50.197-53.248-50.197H136.235
			c-28.203,0-51.584,22.059-53.248,50.197l-16.32,277.333c-0.875,14.827,4.267,28.928,14.443,39.723
			c10.197,10.795,23.957,16.747,38.805,16.747h272.171c14.848,0,28.608-5.952,38.827-16.747
			C441.088,441.792,446.229,427.691,445.355,412.864z M415.36,437.952C409.259,444.437,400.981,448,392.085,448H119.915
			c-8.896,0-17.173-3.563-23.296-10.027c-6.101-6.485-9.173-14.955-8.661-23.851l16.32-277.333
			c1.003-16.896,15.04-30.123,31.957-30.123h239.531c16.917,0,30.955,13.227,31.936,30.101l16.32,277.333
			C424.555,422.997,421.461,431.467,415.36,437.952z" />
	</g>
</g>
    <g>
	<g>
		<path d="M387.541,158.229C386.603,141.291,372.565,128,355.584,128H156.416c-16.981,0-31.019,13.291-31.957,30.229L117.333,288
			c0,27.84,86.869,32,138.667,32c51.797,0,138.667-4.16,138.645-32.576L387.541,158.229z M256,298.667
			c-67.904,0-107.669-8.341-117.163-13.611l6.912-125.632c0.32-5.653,5.013-10.091,10.667-10.091h199.168
			c5.653,0,10.347,4.437,10.645,10.069l6.933,125.653C363.712,290.325,323.947,298.667,256,298.667z" />
	</g>
</g>
    <g>
	<g>
		<path d="M149.333,341.333c-23.531,0-42.667,19.136-42.667,42.667c0,23.531,19.136,42.667,42.667,42.667
			C172.864,426.667,192,407.531,192,384C192,360.469,172.864,341.333,149.333,341.333z M149.333,405.333
			C137.579,405.333,128,395.755,128,384c0-11.755,9.579-21.333,21.333-21.333c11.755,0,21.333,9.579,21.333,21.333
			C170.667,395.755,161.088,405.333,149.333,405.333z" />
	</g>
</g>
    <g>
	<g>
		<path d="M362.667,341.333C339.136,341.333,320,360.469,320,384c0,23.531,19.136,42.667,42.667,42.667s42.667-19.136,42.667-42.667
			C405.333,360.469,386.197,341.333,362.667,341.333z M362.667,405.333c-11.755,0-21.333-9.579-21.333-21.333
			c0-11.755,9.579-21.333,21.333-21.333S384,372.245,384,384C384,395.755,374.421,405.333,362.667,405.333z" />
	</g>
</g>
    <g>
	<g>
		<path d="M288,362.667h-64c-5.888,0-10.667,4.779-10.667,10.667c0,5.888,4.779,10.667,10.667,10.667h64
			c5.888,0,10.667-4.779,10.667-10.667C298.667,367.445,293.888,362.667,288,362.667z" />
	</g>
</g>
    <g>
	<g>
		<path d="M298.667,405.333h-85.333c-5.888,0-10.667,4.779-10.667,10.667c0,5.888,4.779,10.667,10.667,10.667h85.333
			c5.888,0,10.667-4.779,10.667-10.667C309.333,410.112,304.555,405.333,298.667,405.333z" />
	</g>
</g>
    <g>
	<g>
		<path d="M160,448c-5.888,0-10.667,4.779-10.667,10.667V480c0,5.888-4.779,10.667-10.667,10.667S128,485.888,128,480v-21.333
			c0-5.888-4.779-10.667-10.667-10.667s-10.667,4.779-10.667,10.667V480c0,17.643,14.357,32,32,32c17.643,0,32-14.357,32-32v-21.333
			C170.667,452.779,165.888,448,160,448z" />
	</g>
</g>
    <g>
	<g>
		<path d="M394.667,448c-5.888,0-10.667,4.779-10.667,10.667V480c0,5.888-4.779,10.667-10.667,10.667
			c-5.888,0-10.667-4.779-10.667-10.667v-21.333c0-5.888-4.779-10.667-10.667-10.667c-5.888,0-10.667,4.779-10.667,10.667V480
			c0,17.643,14.357,32,32,32c17.643,0,32-14.357,32-32v-21.333C405.333,452.779,400.555,448,394.667,448z" />
	</g>
</g>
    <g>
	<g>
		<path d="M381.867,25.6C378.667,21.333,357.525,0,256,0S133.333,21.333,130.133,25.6c-3.541,4.715-2.837,11.712,1.877,15.253
			c2.005,1.493,4.331,2.24,6.592,2.24c3.072,0,6.059-1.387,8.107-4.096C146.88,38.827,165.376,21.333,256,21.333
			c89.536,0,108.672,17.067,108.8,17.067c3.52,4.715,10.219,5.653,14.933,2.133C384.448,36.992,385.408,30.315,381.867,25.6z" />
	</g>
</g>
    <g>
	<g>
		<path d="M292.203,11.52c-5.376-2.325-11.691,0.192-13.995,5.611L256,68.907l-22.187-51.755c-2.325-5.44-8.661-7.957-13.995-5.611
			c-5.419,2.325-7.936,8.597-5.611,13.995l32,74.667c1.664,3.925,5.525,6.464,9.792,6.464s8.128-2.539,9.813-6.485l32-74.667
			C300.139,20.117,297.621,13.845,292.203,11.52z" />
	</g>
</g>
    <g>
	<g>
		<path d="M426.667,149.333c-5.888,0-10.667,4.779-10.667,10.667s4.779,10.667,10.667,10.667c11.755,0,21.333,9.579,21.333,21.333
			v32c0,5.888-4.779,10.667-10.667,10.667h-10.667c-5.888,0-10.667,4.779-10.667,10.667S420.779,256,426.667,256h10.667
			c17.643,0,32-14.357,32-32v-32C469.333,168.469,450.197,149.333,426.667,149.333z" />
	</g>
</g>
    <g>
	<g>
		<path d="M85.333,234.667H74.667C68.779,234.667,64,229.888,64,224v-32c0-11.755,9.579-21.333,21.333-21.333
			C91.221,170.667,96,165.888,96,160s-4.779-10.667-10.667-10.667c-23.531,0-42.667,19.136-42.667,42.667v32
			c0,17.643,14.357,32,32,32h10.667C91.221,256,96,251.221,96,245.333S91.221,234.667,85.333,234.667z" />
	</g>
</g>
    <g>
</g>
    <g>
</g>
    <g>
</g>
    <g>
</g>
    <g>
</g>
    <g>
</g>
    <g>
</g>
    <g>
</g>
    <g>
</g>
    <g>
</g>
    <g>
</g>
    <g>
</g>
    <g>
</g>
    <g>
</g>
    <g>
</g>
</svg>
